<svg id="visual" viewBox="0 0 900 600" width="900" height="600" xmlns="http://www.w3.org/2000/svg" xmlns:xlink="http://www.w3.org/1999/xlink" version="1.1"><rect x="0" y="0" width="900" height="600" fill="#001220"></rect><defs><linearGradient id="grad1_0" x1="33.3%" y1="0%" x2="100%" y2="100%"><stop offset="20%" stop-color="#001220" stop-opacity="1"></stop><stop offset="80%" stop-color="#001220" stop-opacity="1"></stop></linearGradient></defs><defs><linearGradient id="grad2_0" x1="0%" y1="0%" x2="66.7%" y2="100%"><stop offset="20%" stop-color="#001220" stop-opacity="1"></stop><stop offset="80%" stop-color="#001220" stop-opacity="1"></stop></linearGradient></defs><g transform="translate(900, 0)"><path d="M0 486.7C-62.6 465.5 -125.1 444.3 -169.5 409.3C-213.9 374.2 -240.2 325.4 -289.9 289.9C-339.7 254.4 -413 232.4 -449.7 186.3C-486.4 140.2 -486.6 70.1 -486.7 0L0 0Z" fill="#FBAE3C"></path></g><g transform="translate(0, 600)"><path d="M0 -486.7C58.2 -457.7 116.4 -428.6 164.9 -398.2C213.5 -367.8 252.4 -336 303.3 -303.3C354.3 -270.6 417.1 -237 449.7 -186.3C482.3 -135.6 484.5 -67.8 486.7 0L0 0Z" fill="#FBAE3C"></path></g></svg>